<?xml version="1.0" standalone="no"?>
<!DOCTYPE svg PUBLIC "-//W3C//DTD SVG 20010904//EN"
 "http://www.w3.org/TR/2001/REC-SVG-20010904/DTD/svg10.dtd">
<svg version="1.0" xmlns="http://www.w3.org/2000/svg"
 width="225.000000pt" height="225.000000pt" viewBox="0 0 225.000000 225.000000"
 preserveAspectRatio="xMidYMid meet">
<metadata>
Created by potrace 1.16, written by Peter Selinger 2001-2019
</metadata>
<g transform="translate(0.000000,225.000000) scale(0.100000,-0.100000)"
fill="#000000" stroke="none">
<path d="M995 2238 c-127 -24 -263 -125 -320 -239 -47 -91 -55 -139 -55 -335
l0 -182 -132 -4 c-124 -3 -138 -6 -198 -34 -78 -37 -141 -99 -178 -174 l-27
-55 -3 -445 c-4 -502 -1 -531 66 -618 48 -63 66 -78 142 -115 l65 -32 775 0
775 0 61 28 c77 36 145 104 181 182 l28 60 0 465 0 465 -28 60 c-37 79 -104
147 -181 181 -55 25 -75 28 -202 32 l-141 4 -6 192 c-4 161 -8 200 -26 250
-42 117 -130 220 -234 273 -94 47 -242 64 -362 41z m270 -187 c65 -29 128 -91
157 -155 20 -45 23 -70 26 -229 l4 -177 -334 2 -333 3 1 170 c1 132 5 180 18
214 32 87 98 151 189 183 72 26 202 20 272 -11z m616 -751 c47 -13 116 -86
124 -132 3 -18 5 -222 3 -454 l-3 -420 -24 -36 c-13 -19 -40 -46 -59 -59 l-36
-24 -744 -3 c-744 -2 -745 -2 -789 19 -27 13 -55 37 -71 62 l-27 41 -3 434
c-3 425 -2 435 19 478 22 46 61 80 107 94 40 12 1459 12 1503 0z"/>
<path d="M1053 1030 c-58 -35 -63 -56 -63 -287 0 -189 2 -211 20 -240 27 -45
62 -65 115 -65 53 0 88 20 115 65 18 29 20 51 20 242 0 191 -2 213 -20 242
-37 62 -124 82 -187 43z"/>
</g>
</svg>
